<svg viewBox="0 0 278 135" fill="none" xmlns="http://www.w3.org/2000/svg">
<path d="M149.972 73.18H142.367V73.09H142.412C142.682 73.09 144.887 73 144.887 70.435V55.63C144.887 54.685 144.662 54.145 144.347 54.055H144.257C144.077 54.055 143.897 54.145 143.717 54.325L128.912 68.725V70.435C128.912 73 131.117 73.09 131.387 73.09H131.432V73.18H123.827V73.09H123.872C124.142 73.09 126.347 73 126.347 70.435V49.915C126.347 47.35 124.142 47.26 123.872 47.26H123.827V47.17H131.432V47.26H131.387C131.117 47.26 128.912 47.35 128.912 49.915V66.34L144.887 50.815V49.915C144.887 47.35 142.682 47.26 142.412 47.26H142.367V47.17H149.972V47.26C149.972 47.26 147.452 47.305 147.452 50.05V70.57C147.452 72.91 149.297 73.09 149.837 73.09H149.972V73.18ZM154.822 63.55C154.822 69.58 159.367 72.595 164.092 72.685H164.317C167.692 72.685 172.552 70.525 172.552 66.835V61.75C172.552 56.935 169.042 54.415 164.272 54.325H164.182C159.412 54.325 154.822 57.385 154.822 63.55ZM156.307 53.11L155.992 53.155L155.407 49.78C157.027 48.115 160.852 47.125 164.677 47.125H164.947C169.987 47.17 175.072 48.925 175.207 53.2V70.03C175.207 71.695 176.197 72.865 177.907 72.865H177.997V73H177.007C175.342 73 173.227 73.18 172.552 73.63V70.66C170.167 72.64 167.062 73.63 164.002 73.63C157.837 73.585 152.122 69.49 152.122 63.55C152.122 57.565 157.882 53.425 164.002 53.425H164.317C167.287 53.47 170.257 54.46 172.552 56.44V54.595C172.507 49.87 168.727 48.025 164.767 48.025H164.182C161.392 48.16 156.307 49.645 156.307 53.11ZM205.945 73.315H198.295V73.225H198.34C198.61 73.225 200.815 73.135 200.815 70.57V62.785C200.815 61.66 200.275 60.715 197.485 60.715H188.665C185.875 60.715 185.38 61.66 185.38 62.785V70.57C185.38 72.91 187.225 73.09 187.72 73.09H187.855V73.18H180.34V73.09H180.385C180.655 73.09 182.815 73 182.815 70.435V49.915C182.815 47.305 180.475 47.26 180.34 47.26V47.17H187.855V47.26C187.855 47.26 185.38 47.305 185.38 50.05V59.14L200.815 59.185V49.915C200.815 47.305 198.475 47.26 198.295 47.26V47.17H205.945V47.26H205.9C205.63 47.26 203.425 47.35 203.425 49.915V70.57C203.425 73.135 205.63 73.225 205.9 73.225H205.945V73.315ZM210.808 63.55C210.808 69.58 215.353 72.595 220.078 72.685H220.303C223.678 72.685 228.538 70.525 228.538 66.835V61.75C228.538 56.935 225.028 54.415 220.258 54.325H220.168C215.398 54.325 210.808 57.385 210.808 63.55ZM212.293 53.11L211.978 53.155L211.393 49.78C213.013 48.115 216.838 47.125 220.663 47.125H220.933C225.973 47.17 231.058 48.925 231.193 53.2V70.03C231.193 71.695 232.183 72.865 233.893 72.865H233.983V73H232.993C231.328 73 229.213 73.18 228.538 73.63V70.66C226.153 72.64 223.048 73.63 219.988 73.63C213.823 73.585 208.108 69.49 208.108 63.55C208.108 57.565 213.868 53.425 219.988 53.425H220.303C223.273 53.47 226.243 54.46 228.538 56.44V54.595C228.493 49.87 224.713 48.025 220.753 48.025H220.168C217.378 48.16 212.293 49.645 212.293 53.11ZM31.8986 123.225H22.4936V123.045H22.5386C22.9436 123.045 25.7786 122.91 25.7786 119.535V92.4C25.7786 90.6 25.2386 89.745 22.6736 89.745H11.0186C8.49859 89.745 7.91359 90.6 7.91359 92.4V119.535C7.91359 122.91 10.7486 123.045 11.1536 123.045H11.1986V123.225H1.79359V123.045H1.83859C2.24359 123.045 5.07859 122.91 5.07859 119.535V92.4C5.07859 88.98 2.10859 88.89 1.79359 88.89V88.8H31.8986V88.89C31.5836 88.89 28.6136 88.98 28.6136 92.4V119.535C28.6136 122.91 31.4486 123.045 31.8536 123.045H31.8986V123.225ZM48.4765 122.595C55.1815 122.595 59.6365 116.52 59.6365 110.175C59.6365 103.785 55.1815 97.755 48.4765 97.755C41.7265 97.755 37.2715 103.785 37.2715 110.175C37.2715 116.52 41.7265 122.595 48.4765 122.595ZM48.4765 123.495C40.9615 123.495 34.2115 117.87 34.2115 110.175C34.2115 102.48 40.9615 96.81 48.4765 96.81C55.9915 96.81 62.6965 102.48 62.6965 110.175C62.6965 117.87 55.9915 123.495 48.4765 123.495ZM73.3527 123.45H72.7677C69.9327 123.45 67.2327 122.325 65.7027 120.12C65.0727 119.22 64.7127 118.23 64.6677 117.15V116.925C64.6677 115.8 65.3877 115.395 65.9727 115.395C66.7827 115.44 67.5027 116.16 67.5477 117.015C67.7277 120.255 69.9327 122.01 72.9027 122.01H73.3077C76.3227 121.83 78.5727 119.85 78.5727 116.745V116.385C78.3927 113.865 77.3577 111.435 74.6127 110.67C74.1627 110.535 73.6227 110.445 73.0827 110.445C72.5427 110.445 71.9577 110.535 71.4627 110.67C71.1927 110.58 71.1027 110.31 71.1027 110.04C71.1027 109.725 71.2377 109.365 71.5527 109.275L72.2727 109.32C75.7827 109.32 77.7627 107.025 77.7627 103.425V102.75C77.5827 99.69 75.4227 97.755 72.3627 97.755H72.2727C69.1677 97.8 65.9277 99.51 65.9277 103.155H65.1627L65.2977 97.485H65.6127C65.7477 98.025 66.0177 98.25 66.4227 98.25C67.5477 98.25 69.7077 96.63 72.2277 96.63H72.4527C76.0977 96.63 80.2827 98.835 80.5527 102.93V103.335C80.5527 106.665 78.3027 109.14 75.1977 109.905C78.4377 110.355 81.0927 112.56 81.3177 116.16V116.475C81.3177 120.615 77.0877 123.225 73.3527 123.45ZM111.377 127.455H110.927C110.927 127.455 109.442 123.135 105.887 123.135H88.3824C84.8274 123.135 83.3424 127.455 83.3424 127.455H82.8924L84.3774 121.65H87.7074C90.4074 115.26 92.8374 111.255 92.8374 100.59C92.8374 97.35 90.0024 97.26 89.7324 97.26H89.6874V97.17H109.712V97.26H109.667C109.397 97.26 106.562 97.35 106.562 100.59V118.185C106.562 120.435 106.877 121.65 110.252 121.65L111.377 127.455ZM100.712 121.65C103.637 121.65 103.862 120.165 103.862 118.41V100.59C103.862 98.79 101.792 97.935 99.7224 97.935C97.6074 97.935 95.5374 98.79 95.5374 100.59C95.5374 111.165 92.9274 115.8 90.5874 121.65H100.712ZM138.797 123.315H131.147V123.225H131.192C131.462 123.225 133.667 123.135 133.667 120.57V112.785C133.667 111.66 133.127 110.715 130.337 110.715H121.517C118.727 110.715 118.232 111.66 118.232 112.785V120.57C118.232 122.91 120.077 123.09 120.572 123.09H120.707V123.18H113.192V123.09H113.237C113.507 123.09 115.667 123 115.667 120.435V99.915C115.667 97.305 113.327 97.26 113.192 97.26V97.17H120.707V97.26C120.707 97.26 118.232 97.305 118.232 100.05V109.14L133.667 109.185V99.915C133.667 97.305 131.327 97.26 131.147 97.26V97.17H138.797V97.26H138.752C138.482 97.26 136.277 97.35 136.277 99.915V120.57C136.277 123.135 138.482 123.225 138.752 123.225H138.797V123.315ZM160.625 109.635V99.96C160.625 98.835 160.085 97.89 157.295 97.89H150.905C147.8 97.89 146.135 100.635 146.135 103.47C146.135 106.485 148.025 109.635 152.03 109.635H160.625ZM142.355 123.315L139.835 123.27V123.225H139.88C144.02 123.225 146.315 113.055 153.11 110.49H151.445C146.18 110.445 143.48 106.8 143.48 103.335C143.48 100.185 145.73 97.17 150.185 97.17H165.44V97.305C165.215 97.305 163.01 97.35 162.965 99.825V120.93C162.965 123.045 165.08 123.135 165.395 123.135H165.44V123.225H158.105V123.135H158.15C158.465 123.135 160.625 123.045 160.625 120.525V112.155C160.625 110.715 159.32 110.49 157.925 110.49H157.88C153.515 110.49 150.905 114.99 147.53 119.49C144.965 122.91 144.605 123.315 142.355 123.315ZM190.285 123.225C188.035 123.225 187.675 122.82 185.11 119.4C181.735 114.9 179.08 110.4 174.715 110.4C173.365 110.4 172.06 110.625 172.06 112.065V120.435C172.06 123.045 174.4 123.09 174.535 123.09V123.18H166.93V123.09C167.11 123.09 169.315 123.045 169.405 120.57L169.36 99.96C169.36 97.305 167.02 97.26 166.885 97.26V97.17H174.535V97.26C174.4 97.26 172.06 97.305 172.06 99.96V109.095C177.28 109.095 176.335 102.615 180.205 99.195C181.78 97.8 183.805 97.08 185.83 97.08H186.01C188.08 97.125 190.105 97.89 191.635 99.465L191.05 102.84L189.745 102.57V102.165C189.745 99.42 188.485 98.07 186.01 98.07H185.875C184.03 98.07 182.275 98.925 181.06 101.355C179.53 104.145 179.17 108.375 175.21 109.59H176.02C176.155 109.59 179.08 109.995 181.15 111.21C186.685 114.63 188.935 123.09 192.715 123.09H192.76V123.18L190.285 123.225ZM208.394 122.595C215.099 122.595 219.554 116.52 219.554 110.175C219.554 103.785 215.099 97.755 208.394 97.755C201.644 97.755 197.189 103.785 197.189 110.175C197.189 116.52 201.644 122.595 208.394 122.595ZM208.394 123.495C200.879 123.495 194.129 117.87 194.129 110.175C194.129 102.48 200.879 96.81 208.394 96.81C215.909 96.81 222.614 102.48 222.614 110.175C222.614 117.87 215.909 123.495 208.394 123.495ZM238.31 109.59C242.27 109.59 244.16 106.485 244.205 103.515V103.38C244.205 100.545 242.585 98.07 239.525 98.07H233.09C230.3 98.07 229.805 99.015 229.805 100.185L229.76 109.59H238.31ZM241.145 122.28C244.07 122.28 245.69 120.12 245.915 117.51V116.97C245.915 113.955 244.07 110.76 240.02 110.76H233.045C230.255 110.76 229.76 111.705 229.76 112.875V120.21C229.76 121.335 230.255 122.28 233.045 122.28H241.145ZM241.91 123.18H224.585V123H224.675C225.125 123 227.015 122.865 227.105 120.57V99.78C227.015 97.62 225.26 97.44 224.72 97.44H224.585V97.17H240.155C244.61 97.17 246.86 100.185 246.86 103.335V103.425C246.815 106.17 245.06 108.96 241.685 109.995C246.275 110.535 248.57 113.865 248.57 117.06V117.24C248.48 120.3 246.275 123.18 241.91 123.18ZM253.523 113.55C253.523 119.58 258.068 122.595 262.793 122.685H263.018C266.393 122.685 271.253 120.525 271.253 116.835V111.75C271.253 106.935 267.743 104.415 262.973 104.325H262.883C258.113 104.325 253.523 107.385 253.523 113.55ZM255.008 103.11L254.693 103.155L254.108 99.78C255.728 98.115 259.553 97.125 263.378 97.125H263.648C268.688 97.17 273.773 98.925 273.908 103.2V120.03C273.908 121.695 274.898 122.865 276.608 122.865H276.698V123H275.708C274.043 123 271.928 123.18 271.253 123.63V120.66C268.868 122.64 265.763 123.63 262.703 123.63C256.538 123.585 250.823 119.49 250.823 113.55C250.823 107.565 256.583 103.425 262.703 103.425H263.018C265.988 103.47 268.958 104.46 271.253 106.44V104.595C271.208 99.87 267.428 98.025 263.468 98.025H262.883C260.093 98.16 255.008 99.645 255.008 103.11Z" fill="currentColor"/>
<path d="M142.146 1.2C142.146 1.4 141.846 1.53333 141.246 1.59999C140.113 1.73333 139.313 1.86666 138.846 2C135.379 2.8 131.946 4.76666 128.546 7.9C134.746 13.3667 137.846 20.4333 137.846 29.1C137.846 30.5 137.713 31.8333 137.446 33.1C135.446 43.3 130.013 51.8667 121.146 58.8C112.613 65.4667 100.713 68.7333 85.4461 68.6C80.1128 68.5333 73.8128 68 66.5461 67C61.3461 66.2667 56.1794 65.5333 51.0461 64.8C55.0461 74.8667 63.6794 79.9 76.9461 79.9C81.1461 79.9 84.7794 78.8667 87.8461 76.8C88.9128 76.0667 89.4794 75.7333 89.5461 75.8C90.0128 76.1333 89.7794 76.7 88.8461 77.5C85.9794 79.9667 81.8461 81.2 76.4461 81.2C62.9128 81.2 53.9128 75.9 49.4461 65.3C46.3794 66.2333 43.5461 66.8333 40.9461 67.1C39.8794 67.1667 38.9461 67.0333 38.1461 66.7C37.2794 66.4333 36.8794 66.0333 36.9461 65.5C36.9461 63.8333 38.7794 62.8 42.4461 62.4C44.5128 62.2 46.5461 62.3 48.5461 62.7C47.4794 59.3 46.9461 55.4667 46.9461 51.2C46.9461 36.6 53.1794 24.2 65.6461 14C76.9128 4.8 89.5461 0.199995 103.546 0.199995C113.279 0.199995 121.079 2.33333 126.946 6.6C130.879 3.53333 134.613 1.66666 138.146 0.999996C139.279 0.799995 140.213 0.699994 140.946 0.699994C141.813 0.699994 142.213 0.866663 142.146 1.2ZM133.146 31.2C133.479 29.3333 133.646 27.4667 133.646 25.6C133.646 18.8 131.546 13.2 127.346 8.8C122.946 12.5333 118.246 17.4 113.246 23.4C109.579 27.8 105.946 32.2 102.346 36.6C93.4794 46.6 84.8461 53.7667 76.4461 58.1C70.0461 61.4333 63.2461 63.3333 56.0461 63.8C66.1128 65.8667 75.9461 66.9 85.5461 66.9C98.8794 66.9 109.979 62.8 118.846 54.6C126.846 47.1333 131.613 39.3333 133.146 31.2ZM125.746 7.5C120.879 3.76666 114.146 1.9 105.546 1.9C92.2128 1.9 79.7128 6.73333 68.0461 16.4C55.2461 27 48.8461 38.8667 48.8461 52C48.8461 56.1333 49.3794 59.7667 50.4461 62.9C58.5794 62.6333 65.9794 60.4667 72.6461 56.4C78.9794 52.6 86.6128 45.8667 95.5461 36.2C108.613 22.1333 118.679 12.5667 125.746 7.5Z" fill="currentColor"/>
</svg>
