<svg width="216" height="54" viewBox="0 0 216 54" fill="none" xmlns="http://www.w3.org/2000/svg">
<rect x="26.8701" width="38" height="38" rx="5" transform="rotate(45 26.8701 0)" fill="#ced4da"/>
<path d="M25.2793 29.2916C25.6712 29.2328 25.9686 28.9298 26.0306 28.5512C27.0291 22.4571 31.2849 17.1057 37.5475 15.0077L37.5544 15.0054C37.8301 14.9131 38.0512 14.6954 38.1303 14.4156C38.2756 13.9014 37.9636 13.4105 37.485 13.2945C35.4914 12.811 33.3421 12.865 31.2533 13.5648C27.3329 14.8781 24.6115 18.1352 23.8021 21.9044C23.7486 22.1533 23.6091 22.3811 23.3924 22.5147C23.0499 22.7256 22.6241 22.6818 22.3336 22.429C19.4154 19.8905 15.2676 18.9201 11.335 20.2376C9.25639 20.9339 7.51512 22.1768 6.21713 23.7527C5.98231 24.0378 5.9275 24.4401 6.10425 24.7644C6.31345 25.1482 6.76386 25.3207 7.16957 25.1845C7.17313 25.1833 7.1767 25.1821 7.18034 25.1809C13.4333 23.0861 20.0431 24.7853 24.5109 29.0335C24.7166 29.2291 24.9986 29.3337 25.2793 29.2916Z" fill="white"/>
<path d="M39.6573 33.8282C38.2761 33.0127 36.6561 32.5638 34.9344 32.6117C31.6926 32.7019 28.9081 34.5299 27.4483 37.1786C27.3287 37.3955 27.1032 37.533 26.8556 37.5398C26.608 37.5465 26.3758 37.4215 26.2443 37.2115C24.6395 34.6484 21.7579 32.9782 18.5163 33.0683C16.7946 33.1162 15.202 33.6545 13.8683 34.5455C13.6104 34.7178 13.4977 35.0398 13.5918 35.3354C13.6859 35.6309 13.9642 35.8291 14.2743 35.8204C14.2772 35.8203 14.2801 35.8202 14.2831 35.8201C19.4453 35.6766 24.0087 38.4613 26.3804 42.667C26.5076 42.8926 26.7492 43.0293 27.0082 43.0223C27.2671 43.0152 27.5012 42.8656 27.6156 42.6332C29.7497 38.3018 34.1516 35.2676 39.314 35.124C39.317 35.1239 39.3199 35.1238 39.3228 35.1238C39.6331 35.1154 39.9002 34.9025 39.9778 34.602C40.0554 34.3014 39.9246 33.986 39.6573 33.8282Z" fill="white"/>
<path d="M63.2681 31.4861C63.1081 31.4861 63.0281 31.4061 63.0281 31.2461V28.1021C63.0281 27.7661 63.2121 27.5501 63.5801 27.4541C64.2041 27.2941 64.6521 26.9261 64.9241 26.3501C65.1961 25.7741 65.3321 24.9661 65.3321 23.9261V16.0781C65.3321 15.3261 65.4921 14.6381 65.8121 14.0141C66.1481 13.3901 66.6041 12.9021 67.1801 12.5501C67.7721 12.1821 68.4361 11.9981 69.1721 11.9981H71.4521C71.8361 11.9981 72.1321 12.1021 72.3401 12.3101C72.5481 12.5181 72.6521 12.8141 72.6521 13.1981V27.5261H72.8441C73.2281 27.5261 73.5241 27.6301 73.7321 27.8381C73.9401 28.0461 74.0441 28.3421 74.0441 28.7261V31.2461C74.0441 31.4061 73.9641 31.4861 73.8041 31.4861H72.8921C72.7321 31.4861 72.6521 31.4061 72.6521 31.2461V28.8701H64.4201V31.2461C64.4201 31.4061 64.3401 31.4861 64.1801 31.4861H63.2681ZM71.2121 27.5261V13.3421H69.1721C68.4681 13.3421 67.8921 13.6061 67.4441 14.1341C66.9961 14.6461 66.7721 15.2941 66.7721 16.0781V23.9261C66.7721 24.8701 66.6761 25.6301 66.4841 26.2061C66.2921 26.7661 65.9881 27.2061 65.5721 27.5261H71.2121ZM79.5 28.9181C78.412 28.9181 77.508 28.5821 76.788 27.9101C76.084 27.2381 75.732 26.3741 75.732 25.3181V17.1101C75.732 16.9501 75.812 16.8701 75.972 16.8701H76.86C77.02 16.8701 77.1 16.9501 77.1 17.1101V25.3181C77.1 26.0061 77.316 26.5581 77.748 26.9741C78.196 27.3901 78.78 27.5981 79.5 27.5981H81.372V17.1101C81.372 16.9501 81.452 16.8701 81.612 16.8701H82.5C82.66 16.8701 82.74 16.9501 82.74 17.1101V27.8381C82.74 28.1901 82.644 28.4621 82.452 28.6541C82.276 28.8301 82.012 28.9181 81.66 28.9181H79.5ZM88.9106 29.0861C87.8066 29.0861 86.9106 28.7421 86.2226 28.0541C85.5506 27.3501 85.2146 26.4541 85.2146 25.3661C85.2146 24.7421 85.3666 24.1661 85.6706 23.6381C85.9746 23.1101 86.4066 22.6941 86.9666 22.3901C87.5266 22.0701 88.1586 21.9101 88.8626 21.9101H91.1906V20.3501C91.1906 19.6461 90.9826 19.0701 90.5666 18.6221C90.1666 18.1741 89.6226 17.9501 88.9346 17.9501C88.3106 17.9501 87.8066 18.1501 87.4226 18.5501C87.0386 18.9501 86.8226 19.4861 86.7746 20.1581C86.7586 20.3181 86.6786 20.3981 86.5346 20.3981H85.6466C85.4866 20.3981 85.4066 20.3181 85.4066 20.1581C85.4706 19.1181 85.8226 18.2701 86.4626 17.6141C87.1026 16.9581 87.9266 16.6301 88.9346 16.6301C90.0226 16.6301 90.8946 16.9821 91.5506 17.6861C92.2226 18.3901 92.5586 19.2781 92.5586 20.3501V25.3661C92.5586 26.4541 92.2226 27.3501 91.5506 28.0541C90.8786 28.7421 89.9986 29.0861 88.9106 29.0861ZM88.9106 27.7661C89.6146 27.7661 90.1666 27.5501 90.5666 27.1181C90.9826 26.6701 91.1906 26.0861 91.1906 25.3661V23.2301H88.8626C88.1746 23.2301 87.6226 23.4381 87.2066 23.8541C86.7906 24.2541 86.5826 24.7581 86.5826 25.3661C86.5826 26.0861 86.7906 26.6701 87.2066 27.1181C87.6226 27.5501 88.1906 27.7661 88.9106 27.7661ZM100.783 17.1101C100.783 16.9501 100.863 16.8701 101.023 16.8701H101.911C102.071 16.8701 102.151 16.9501 102.151 17.1101V28.6301C102.151 28.7901 102.071 28.8701 101.911 28.8701H101.023C100.863 28.8701 100.783 28.7901 100.783 28.6301V23.2781H96.5587V28.6301C96.5587 28.7901 96.4787 28.8701 96.3187 28.8701H95.4307C95.2707 28.8701 95.1907 28.7901 95.1907 28.6301V17.1101C95.1907 16.9501 95.2707 16.8701 95.4307 16.8701H96.3187C96.4787 16.8701 96.5587 16.9501 96.5587 17.1101V21.9821H100.783V17.1101ZM108.317 29.0861C107.213 29.0861 106.317 28.7421 105.629 28.0541C104.957 27.3501 104.621 26.4541 104.621 25.3661C104.621 24.7421 104.773 24.1661 105.077 23.6381C105.381 23.1101 105.813 22.6941 106.373 22.3901C106.933 22.0701 107.565 21.9101 108.269 21.9101H110.597V20.3501C110.597 19.6461 110.389 19.0701 109.973 18.6221C109.573 18.1741 109.029 17.9501 108.341 17.9501C107.717 17.9501 107.213 18.1501 106.829 18.5501C106.445 18.9501 106.229 19.4861 106.181 20.1581C106.165 20.3181 106.085 20.3981 105.941 20.3981H105.053C104.893 20.3981 104.813 20.3181 104.813 20.1581C104.877 19.1181 105.229 18.2701 105.869 17.6141C106.509 16.9581 107.333 16.6301 108.341 16.6301C109.429 16.6301 110.301 16.9821 110.957 17.6861C111.629 18.3901 111.965 19.2781 111.965 20.3501V25.3661C111.965 26.4541 111.629 27.3501 110.957 28.0541C110.285 28.7421 109.405 29.0861 108.317 29.0861ZM108.317 27.7661C109.021 27.7661 109.573 27.5501 109.973 27.1181C110.389 26.6701 110.597 26.0861 110.597 25.3661V23.2301H108.269C107.581 23.2301 107.029 23.4381 106.613 23.8541C106.197 24.2541 105.989 24.7581 105.989 25.3661C105.989 26.0861 106.197 26.6701 106.613 27.1181C107.029 27.5501 107.597 27.7661 108.317 27.7661ZM120.418 28.8701C120.258 28.8701 120.178 28.7901 120.178 28.6301V13.2701C120.178 12.8861 120.282 12.5901 120.49 12.3821C120.698 12.1741 120.994 12.0701 121.378 12.0701H126.658C127.042 12.0701 127.338 12.1741 127.546 12.3821C127.754 12.5901 127.858 12.8861 127.858 13.2701V28.6301C127.858 28.7901 127.778 28.8701 127.618 28.8701H126.658C126.498 28.8701 126.418 28.7901 126.418 28.6301V13.4141H121.618V28.6301C121.618 28.7901 121.538 28.8701 121.378 28.8701H120.418ZM134.172 29.1101C133.068 29.1101 132.172 28.7581 131.484 28.0541C130.812 27.3341 130.476 26.4301 130.476 25.3421V20.3981C130.476 19.3101 130.812 18.4141 131.484 17.7101C132.172 16.9901 133.068 16.6301 134.172 16.6301C135.276 16.6301 136.164 16.9901 136.836 17.7101C137.524 18.4141 137.868 19.3101 137.868 20.3981V25.3421C137.868 26.4301 137.524 27.3341 136.836 28.0541C136.164 28.7581 135.276 29.1101 134.172 29.1101ZM134.172 27.8141C134.876 27.8141 135.436 27.5901 135.852 27.1421C136.268 26.6781 136.476 26.0781 136.476 25.3421V20.3981C136.476 19.6621 136.268 19.0701 135.852 18.6221C135.436 18.1581 134.876 17.9261 134.172 17.9261C133.468 17.9261 132.908 18.1581 132.492 18.6221C132.076 19.0701 131.868 19.6621 131.868 20.3981V25.3421C131.868 26.0781 132.076 26.6781 132.492 27.1421C132.908 27.5901 133.468 27.8141 134.172 27.8141ZM143.255 29.1101C142.199 29.1101 141.335 28.7821 140.663 28.1261C139.991 27.4701 139.623 26.6221 139.559 25.5821C139.559 25.4221 139.639 25.3421 139.799 25.3421H140.687C140.847 25.3421 140.927 25.4221 140.927 25.5821C140.975 26.2541 141.199 26.7901 141.599 27.1901C142.015 27.5901 142.567 27.7901 143.255 27.7901C143.975 27.7901 144.543 27.5821 144.959 27.1661C145.375 26.7341 145.583 26.1421 145.583 25.3901C145.583 24.6861 145.375 24.1341 144.959 23.7341C144.559 23.3181 143.975 23.1101 143.207 23.1101H142.103C141.943 23.1101 141.863 23.0301 141.863 22.8701V22.0301C141.863 21.8701 141.943 21.7901 142.103 21.7901H143.111C143.767 21.7901 144.279 21.6221 144.647 21.2861C145.015 20.9501 145.199 20.4941 145.199 19.9181C145.199 19.2941 145.023 18.8141 144.671 18.4781C144.319 18.1261 143.823 17.9501 143.183 17.9501C141.903 17.9501 141.231 18.6861 141.167 20.1581C141.167 20.3181 141.087 20.3981 140.927 20.3981H140.039C139.879 20.3981 139.799 20.3181 139.799 20.1581C139.847 19.0381 140.175 18.1741 140.783 17.5661C141.391 16.9421 142.191 16.6301 143.183 16.6301C144.191 16.6301 145.007 16.9341 145.631 17.5421C146.255 18.1501 146.567 18.9421 146.567 19.9181C146.567 20.4781 146.431 20.9661 146.159 21.3821C145.903 21.7981 145.535 22.1341 145.055 22.3901C145.647 22.6301 146.111 23.0141 146.447 23.5421C146.799 24.0541 146.975 24.6701 146.975 25.3901C146.975 26.5101 146.623 27.4141 145.919 28.1021C145.231 28.7741 144.343 29.1101 143.255 29.1101ZM148.09 31.4861C147.93 31.4861 147.85 31.4061 147.85 31.2461V28.0301C147.85 27.7421 148.026 27.5661 148.378 27.5021C148.842 27.3901 149.194 27.1341 149.434 26.7341C149.674 26.3341 149.794 25.7981 149.794 25.1261V20.9021C149.794 20.1021 149.954 19.3981 150.274 18.7901C150.594 18.1661 151.026 17.6861 151.57 17.3501C152.13 16.9981 152.762 16.8221 153.466 16.8221H155.434C155.786 16.8221 156.05 16.9181 156.226 17.1101C156.418 17.2861 156.514 17.5501 156.514 17.9021V27.5501H156.778C157.13 27.5501 157.394 27.6461 157.57 27.8381C157.762 28.0141 157.858 28.2781 157.858 28.6301V31.2461C157.858 31.4061 157.778 31.4861 157.618 31.4861H156.754C156.594 31.4861 156.514 31.4061 156.514 31.2461V28.8701H149.194V31.2461C149.194 31.4061 149.114 31.4861 148.954 31.4861H148.09ZM155.146 27.5501V18.1421H153.466C152.778 18.1421 152.218 18.3901 151.786 18.8861C151.37 19.3821 151.162 20.0541 151.162 20.9021V25.0061C151.162 26.1101 150.842 26.9581 150.202 27.5501H155.146ZM165.283 17.1101C165.283 16.9501 165.363 16.8701 165.523 16.8701H166.411C166.571 16.8701 166.651 16.9501 166.651 17.1101V28.6301C166.651 28.7901 166.571 28.8701 166.411 28.8701H165.523C165.363 28.8701 165.283 28.7901 165.283 28.6301V23.2781H161.059V28.6301C161.059 28.7901 160.979 28.8701 160.819 28.8701H159.931C159.771 28.8701 159.691 28.7901 159.691 28.6301V17.1101C159.691 16.9501 159.771 16.8701 159.931 16.8701H160.819C160.979 16.8701 161.059 16.9501 161.059 17.1101V21.9821H165.283V17.1101ZM172.896 16.6301C173.904 16.6301 174.736 16.9661 175.392 17.6381C176.048 18.2941 176.376 19.1501 176.376 20.2061V28.6301C176.376 28.7901 176.296 28.8701 176.136 28.8701H175.248C175.088 28.8701 175.008 28.7901 175.008 28.6301V24.3101H172.536L170.208 28.7021C170.16 28.8141 170.064 28.8701 169.92 28.8701H168.888C168.792 28.8701 168.72 28.8461 168.672 28.7981C168.64 28.7341 168.648 28.6621 168.696 28.5821L171.192 23.9981C170.52 23.7261 169.992 23.2861 169.608 22.6781C169.224 22.0701 169.032 21.3341 169.032 20.4701C169.032 19.3181 169.392 18.3901 170.112 17.6861C170.848 16.9821 171.776 16.6301 172.896 16.6301ZM175.008 20.2061C175.008 19.5021 174.816 18.9501 174.432 18.5501C174.048 18.1501 173.536 17.9501 172.896 17.9501C172.144 17.9501 171.536 18.1741 171.072 18.6221C170.624 19.0541 170.4 19.6701 170.4 20.4701C170.4 21.2701 170.616 21.8941 171.048 22.3421C171.496 22.7741 172.08 22.9901 172.8 22.9901H175.008V20.2061ZM183.677 22.1501C184.461 22.3741 185.085 22.7981 185.549 23.4221C186.029 24.0301 186.269 24.7501 186.269 25.5821V28.6301C186.269 28.7901 186.189 28.8701 186.029 28.8701H185.141C184.981 28.8701 184.901 28.7901 184.901 28.6301V25.5821C184.901 24.8941 184.677 24.3421 184.229 23.9261C183.797 23.5101 183.221 23.3021 182.501 23.3021H180.629V28.6301C180.629 28.7901 180.549 28.8701 180.389 28.8701H179.501C179.341 28.8701 179.261 28.7901 179.261 28.6301V17.1101C179.261 16.9501 179.341 16.8701 179.501 16.8701H180.389C180.549 16.8701 180.629 16.9501 180.629 17.1101V21.9821H182.261L184.949 17.0381C185.013 16.9261 185.109 16.8701 185.237 16.8701H186.245C186.341 16.8701 186.405 16.9021 186.437 16.9661C186.485 17.0141 186.485 17.0781 186.437 17.1581L183.677 22.1501ZM191.969 29.1101C190.865 29.1101 189.969 28.7581 189.281 28.0541C188.609 27.3341 188.273 26.4301 188.273 25.3421V20.3981C188.273 19.3101 188.609 18.4141 189.281 17.7101C189.969 16.9901 190.865 16.6301 191.969 16.6301C193.073 16.6301 193.961 16.9901 194.633 17.7101C195.321 18.4141 195.665 19.3101 195.665 20.3981V25.3421C195.665 26.4301 195.321 27.3341 194.633 28.0541C193.961 28.7581 193.073 29.1101 191.969 29.1101ZM191.969 27.8141C192.673 27.8141 193.233 27.5901 193.649 27.1421C194.065 26.6781 194.273 26.0781 194.273 25.3421V20.3981C194.273 19.6621 194.065 19.0701 193.649 18.6221C193.233 18.1581 192.673 17.9261 191.969 17.9261C191.265 17.9261 190.705 18.1581 190.289 18.6221C189.873 19.0701 189.665 19.6621 189.665 20.3981V25.3421C189.665 26.0781 189.873 26.6781 190.289 27.1421C190.705 27.5901 191.265 27.8141 191.969 27.8141ZM203.524 22.3661C204.132 22.6061 204.604 22.9901 204.94 23.5181C205.292 24.0301 205.468 24.6381 205.468 25.3421C205.468 26.3661 205.108 27.2141 204.388 27.8861C203.684 28.5421 202.788 28.8701 201.7 28.8701H199.156C198.804 28.8701 198.532 28.7821 198.34 28.6061C198.164 28.4141 198.076 28.1421 198.076 27.7901V19.9181C198.076 18.9421 198.388 18.1501 199.012 17.5421C199.636 16.9341 200.46 16.6301 201.484 16.6301C202.508 16.6301 203.332 16.9341 203.956 17.5421C204.58 18.1501 204.892 18.9421 204.892 19.9181C204.892 20.4781 204.772 20.9661 204.532 21.3821C204.292 21.7981 203.956 22.1261 203.524 22.3661ZM199.444 21.7901H201.412C202.084 21.7901 202.604 21.6221 202.972 21.2861C203.34 20.9501 203.524 20.4941 203.524 19.9181C203.524 19.2941 203.348 18.8141 202.996 18.4781C202.644 18.1261 202.14 17.9501 201.484 17.9501C200.828 17.9501 200.324 18.1261 199.972 18.4781C199.62 18.8141 199.444 19.2941 199.444 19.9181V21.7901ZM201.7 27.5501C202.42 27.5501 202.996 27.3501 203.428 26.9501C203.876 26.5501 204.1 26.0141 204.1 25.3421C204.1 24.6701 203.876 24.1341 203.428 23.7341C202.996 23.3181 202.42 23.1101 201.7 23.1101H199.444V27.5501H201.7ZM210.973 29.0861C209.869 29.0861 208.973 28.7421 208.285 28.0541C207.613 27.3501 207.277 26.4541 207.277 25.3661C207.277 24.7421 207.429 24.1661 207.733 23.6381C208.037 23.1101 208.469 22.6941 209.029 22.3901C209.589 22.0701 210.221 21.9101 210.925 21.9101H213.253V20.3501C213.253 19.6461 213.045 19.0701 212.629 18.6221C212.229 18.1741 211.685 17.9501 210.997 17.9501C210.373 17.9501 209.869 18.1501 209.485 18.5501C209.101 18.9501 208.885 19.4861 208.837 20.1581C208.821 20.3181 208.741 20.3981 208.597 20.3981H207.709C207.549 20.3981 207.469 20.3181 207.469 20.1581C207.533 19.1181 207.885 18.2701 208.525 17.6141C209.165 16.9581 209.989 16.6301 210.997 16.6301C212.085 16.6301 212.957 16.9821 213.613 17.6861C214.285 18.3901 214.621 19.2781 214.621 20.3501V25.3661C214.621 26.4541 214.285 27.3501 213.613 28.0541C212.941 28.7421 212.061 29.0861 210.973 29.0861ZM210.973 27.7661C211.677 27.7661 212.229 27.5501 212.629 27.1181C213.045 26.6701 213.253 26.0861 213.253 25.3661V23.2301H210.925C210.237 23.2301 209.685 23.4381 209.269 23.8541C208.853 24.2541 208.645 24.7581 208.645 25.3661C208.645 26.0861 208.853 26.6701 209.269 27.1181C209.685 27.5501 210.253 27.7661 210.973 27.7661Z" fill="#343A40"/>
<path d="M66.4601 35.8701C66.6361 35.8701 66.7681 35.9181 66.8561 36.0141C66.9521 36.1021 67.0001 36.2341 67.0001 36.4101V41.7501C67.0001 41.8301 66.9601 41.8701 66.8801 41.8701H66.4361C66.3561 41.8701 66.3161 41.8301 66.3161 41.7501V36.5301H64.2041V41.7501C64.2041 41.8301 64.1641 41.8701 64.0841 41.8701H63.6401C63.5601 41.8701 63.5201 41.8301 63.5201 41.7501V36.4101C63.5201 36.2341 63.5641 36.1021 63.6521 36.0141C63.7481 35.9181 63.8841 35.8701 64.0601 35.8701H66.4601ZM71.428 41.9901C70.884 41.9901 70.444 41.8141 70.108 41.4621C69.772 41.1021 69.604 40.6501 69.604 40.1061V37.6341C69.604 37.0901 69.768 36.6421 70.096 36.2901C70.432 35.9301 70.868 35.7501 71.404 35.7501C71.916 35.7501 72.336 35.9141 72.664 36.2421C72.992 36.5701 73.172 36.9941 73.204 37.5141C73.204 37.5941 73.164 37.6341 73.084 37.6341H72.64C72.56 37.6341 72.52 37.5941 72.52 37.5141C72.496 37.1781 72.384 36.9101 72.184 36.7101C71.992 36.5101 71.732 36.4101 71.404 36.4101C71.06 36.4101 70.788 36.5221 70.588 36.7461C70.388 36.9701 70.288 37.2661 70.288 37.6341V40.1061C70.288 40.4741 70.388 40.7701 70.588 40.9941C70.796 41.2181 71.076 41.3301 71.428 41.3301C71.756 41.3301 72.02 41.2181 72.22 40.9941C72.428 40.7701 72.544 40.4741 72.568 40.1061C72.568 40.0261 72.608 39.9861 72.688 39.9861H73.132C73.212 39.9861 73.252 40.0261 73.252 40.1061C73.22 40.6581 73.036 41.1101 72.7 41.4621C72.372 41.8141 71.948 41.9901 71.428 41.9901ZM77.4749 41.8941C76.9309 41.8941 76.4789 41.7261 76.1189 41.3901C75.7669 41.0541 75.5909 40.6221 75.5909 40.0941V35.9901C75.5909 35.9101 75.6309 35.8701 75.7109 35.8701H76.1549C76.2349 35.8701 76.2749 35.9101 76.2749 35.9901V40.0941C76.2749 40.4381 76.3829 40.7141 76.5989 40.9221C76.8229 41.1301 77.1149 41.2341 77.4749 41.2341H78.4109V35.9901C78.4109 35.9101 78.4509 35.8701 78.5309 35.8701H78.9749C79.0549 35.8701 79.0949 35.9101 79.0949 35.9901V41.3541C79.0949 41.5301 79.0469 41.6661 78.9509 41.7621C78.8629 41.8501 78.7309 41.8941 78.5549 41.8941H77.4749ZM81.8562 41.8701C81.7762 41.8701 81.7362 41.8301 81.7362 41.7501V40.4181C81.7362 40.0821 81.8122 39.7821 81.9642 39.5181C82.1242 39.2461 82.3442 39.0261 82.6242 38.8581C82.3442 38.6981 82.1242 38.4861 81.9642 38.2221C81.8122 37.9501 81.7362 37.6461 81.7362 37.3101V35.9901C81.7362 35.9101 81.7762 35.8701 81.8562 35.8701H82.3002C82.3802 35.8701 82.4202 35.9101 82.4202 35.9901V37.3101C82.4202 37.6781 82.5202 37.9741 82.7202 38.1981C82.9202 38.4221 83.1882 38.5341 83.5242 38.5341C83.8602 38.5341 84.1282 38.4221 84.3282 38.1981C84.5282 37.9741 84.6282 37.6781 84.6282 37.3101V35.9901C84.6282 35.9101 84.6682 35.8701 84.7482 35.8701H85.1922C85.2722 35.8701 85.3122 35.9101 85.3122 35.9901V37.3101C85.3122 37.6461 85.2322 37.9501 85.0722 38.2221C84.9202 38.4861 84.7042 38.6981 84.4242 38.8581C84.7042 39.0261 84.9202 39.2461 85.0722 39.5181C85.2322 39.7821 85.3122 40.0821 85.3122 40.4181V41.7501C85.3122 41.8301 85.2722 41.8701 85.1922 41.8701H84.7482C84.6682 41.8701 84.6282 41.8301 84.6282 41.7501V40.4181C84.6282 40.0501 84.5282 39.7541 84.3282 39.5301C84.1282 39.3061 83.8602 39.1941 83.5242 39.1941C83.1882 39.1941 82.9202 39.3061 82.7202 39.5301C82.5202 39.7541 82.4202 40.0501 82.4202 40.4181V41.7501C82.4202 41.8301 82.3802 41.8701 82.3002 41.8701H81.8562ZM89.5566 41.9901C89.0046 41.9901 88.5566 41.8141 88.2126 41.4621C87.8766 41.1021 87.7086 40.6501 87.7086 40.1061V37.6341C87.7086 37.0901 87.8766 36.6421 88.2126 36.2901C88.5566 35.9301 89.0046 35.7501 89.5566 35.7501C90.1086 35.7501 90.5526 35.9301 90.8886 36.2901C91.2326 36.6421 91.4046 37.0901 91.4046 37.6341V40.1061C91.4046 40.6501 91.2326 41.1021 90.8886 41.4621C90.5526 41.8141 90.1086 41.9901 89.5566 41.9901ZM89.5566 41.3421C89.9086 41.3421 90.1886 41.2301 90.3966 41.0061C90.6046 40.7741 90.7086 40.4741 90.7086 40.1061V37.6341C90.7086 37.2661 90.6046 36.9701 90.3966 36.7461C90.1886 36.5141 89.9086 36.3981 89.5566 36.3981C89.2046 36.3981 88.9246 36.5141 88.7166 36.7461C88.5086 36.9701 88.4046 37.2661 88.4046 37.6341V40.1061C88.4046 40.4741 88.5086 40.7741 88.7166 41.0061C88.9246 41.2301 89.2046 41.3421 89.5566 41.3421ZM93.2062 41.8701C93.1262 41.8701 93.0862 41.8301 93.0862 41.7501V41.3301C93.0862 41.2501 93.1262 41.2061 93.2062 41.1981C93.4142 41.1661 93.5742 41.0541 93.6862 40.8621C93.8062 40.6621 93.8662 40.3861 93.8662 40.0341V37.6461C93.8662 37.1181 94.0422 36.6861 94.3942 36.3501C94.7542 36.0141 95.2062 35.8461 95.7502 35.8461H96.7102C96.8862 35.8461 97.0182 35.8941 97.1062 35.9901C97.2022 36.0781 97.2502 36.2101 97.2502 36.3861V41.7501C97.2502 41.8301 97.2102 41.8701 97.1302 41.8701H96.6862C96.6062 41.8701 96.5662 41.8301 96.5662 41.7501V36.5061H95.7502C95.3902 36.5061 95.0982 36.6101 94.8742 36.8181C94.6582 37.0261 94.5502 37.3021 94.5502 37.6461V40.0341C94.5502 40.5781 94.4302 41.0141 94.1902 41.3421C93.9582 41.6621 93.6302 41.8381 93.2062 41.8701ZM101.7 41.9901C101.148 41.9901 100.7 41.8141 100.356 41.4621C100.02 41.1021 99.8525 40.6501 99.8525 40.1061V37.6341C99.8525 37.0901 100.02 36.6421 100.356 36.2901C100.7 35.9301 101.148 35.7501 101.7 35.7501C102.252 35.7501 102.696 35.9301 103.032 36.2901C103.376 36.6421 103.548 37.0901 103.548 37.6341V40.1061C103.548 40.6501 103.376 41.1021 103.032 41.4621C102.696 41.8141 102.252 41.9901 101.7 41.9901ZM101.7 41.3421C102.052 41.3421 102.332 41.2301 102.54 41.0061C102.748 40.7741 102.852 40.4741 102.852 40.1061V37.6341C102.852 37.2661 102.748 36.9701 102.54 36.7461C102.332 36.5141 102.052 36.3981 101.7 36.3981C101.348 36.3981 101.068 36.5141 100.86 36.7461C100.652 36.9701 100.548 37.2661 100.548 37.6341V40.1061C100.548 40.4741 100.652 40.7741 100.86 41.0061C101.068 41.2301 101.348 41.3421 101.7 41.3421ZM106.194 41.8701C106.114 41.8701 106.074 41.8301 106.074 41.7501V37.6341C106.074 37.0661 106.23 36.6261 106.542 36.3141C106.862 36.0021 107.302 35.8461 107.862 35.8461H108.57C108.65 35.8461 108.69 35.8861 108.69 35.9661V36.3861C108.69 36.4661 108.65 36.5061 108.57 36.5061H107.862C107.502 36.5061 107.226 36.6021 107.034 36.7941C106.85 36.9861 106.758 37.2661 106.758 37.6341V41.7501C106.758 41.8301 106.718 41.8701 106.638 41.8701H106.194ZM109.858 41.1381C109.858 41.0581 109.902 41.0181 109.99 41.0181H110.506C110.546 41.0181 110.574 41.0301 110.59 41.0541C110.614 41.0781 110.622 41.1101 110.614 41.1501L110.278 42.9981C110.27 43.0701 110.226 43.1061 110.146 43.1061H109.858C109.786 43.1061 109.75 43.0661 109.75 42.9861L109.858 41.1381ZM116.939 41.8701C116.859 41.8701 116.819 41.8301 116.819 41.7501V37.6341C116.819 37.0661 116.975 36.6261 117.287 36.3141C117.607 36.0021 118.047 35.8461 118.607 35.8461H119.315C119.395 35.8461 119.435 35.8861 119.435 35.9661V36.3861C119.435 36.4661 119.395 36.5061 119.315 36.5061H118.607C118.247 36.5061 117.971 36.6021 117.779 36.7941C117.595 36.9861 117.503 37.2661 117.503 37.6341V41.7501C117.503 41.8301 117.463 41.8701 117.383 41.8701H116.939ZM123.124 41.9781C122.572 41.9781 122.128 41.8061 121.792 41.4621C121.456 41.1181 121.288 40.6621 121.288 40.0941V37.6581C121.288 37.0981 121.452 36.6421 121.78 36.2901C122.116 35.9381 122.564 35.7621 123.124 35.7621C123.668 35.7621 124.108 35.9381 124.444 36.2901C124.788 36.6341 124.96 37.0741 124.96 37.6101C124.96 38.1141 124.788 38.5341 124.444 38.8701C124.108 39.1981 123.668 39.3621 123.124 39.3621H121.972V40.0941C121.972 40.4621 122.076 40.7581 122.284 40.9821C122.492 41.2061 122.772 41.3181 123.124 41.3181C123.46 41.3181 123.728 41.2061 123.928 40.9821C124.136 40.7581 124.248 40.4621 124.264 40.0941C124.264 40.0141 124.304 39.9741 124.384 39.9741H124.828C124.908 39.9741 124.948 40.0141 124.948 40.0941C124.932 40.6541 124.756 41.1101 124.42 41.4621C124.084 41.8061 123.652 41.9781 123.124 41.9781ZM123.124 38.7021C123.476 38.7021 123.756 38.6021 123.964 38.4021C124.172 38.1941 124.276 37.9301 124.276 37.6101C124.276 37.2581 124.172 36.9741 123.964 36.7581C123.756 36.5341 123.476 36.4221 123.124 36.4221C122.756 36.4221 122.472 36.5341 122.272 36.7581C122.072 36.9821 121.972 37.2821 121.972 37.6581V38.7021H123.124ZM129.216 41.8821C128.672 41.8821 128.232 41.7061 127.896 41.3541C127.56 40.9941 127.392 40.5421 127.392 39.9981V35.9901C127.392 35.9101 127.432 35.8701 127.512 35.8701H127.956C128.036 35.8701 128.076 35.9101 128.076 35.9901V39.9981C128.076 40.3661 128.176 40.6621 128.376 40.8861C128.584 41.1101 128.864 41.2221 129.216 41.2221H130.116V35.9901C130.116 35.9101 130.156 35.8701 130.236 35.8701H130.68C130.76 35.8701 130.8 35.9101 130.8 35.9901V41.2221H132.816V35.9901C132.816 35.9101 132.856 35.8701 132.936 35.8701H133.38C133.46 35.8701 133.5 35.9101 133.5 35.9901V41.3421C133.5 41.5181 133.452 41.6541 133.356 41.7501C133.268 41.8381 133.136 41.8821 132.96 41.8821H129.216ZM137.198 41.8701C137.118 41.8701 137.078 41.8301 137.078 41.7501V36.5301H135.77C135.69 36.5301 135.65 36.4901 135.65 36.4101V35.9901C135.65 35.9101 135.69 35.8701 135.77 35.8701H139.082C139.162 35.8701 139.202 35.9101 139.202 35.9901V36.4101C139.202 36.4901 139.162 36.5301 139.082 36.5301H137.762V41.7501C137.762 41.8301 137.722 41.8701 137.642 41.8701H137.198ZM142.891 41.9781C142.339 41.9781 141.891 41.8061 141.547 41.4621C141.211 41.1101 141.043 40.6621 141.043 40.1181C141.043 39.8061 141.119 39.5181 141.271 39.2541C141.423 38.9901 141.639 38.7821 141.919 38.6301C142.199 38.4701 142.515 38.3901 142.867 38.3901H144.031V37.6101C144.031 37.2581 143.927 36.9701 143.719 36.7461C143.519 36.5221 143.247 36.4101 142.903 36.4101C142.591 36.4101 142.339 36.5101 142.147 36.7101C141.955 36.9101 141.847 37.1781 141.823 37.5141C141.815 37.5941 141.775 37.6341 141.703 37.6341H141.259C141.179 37.6341 141.139 37.5941 141.139 37.5141C141.171 36.9941 141.347 36.5701 141.667 36.2421C141.987 35.9141 142.399 35.7501 142.903 35.7501C143.447 35.7501 143.883 35.9261 144.211 36.2781C144.547 36.6301 144.715 37.0741 144.715 37.6101V40.1181C144.715 40.6621 144.547 41.1101 144.211 41.4621C143.875 41.8061 143.435 41.9781 142.891 41.9781ZM142.891 41.3181C143.243 41.3181 143.519 41.2101 143.719 40.9941C143.927 40.7701 144.031 40.4781 144.031 40.1181V39.0501H142.867C142.523 39.0501 142.247 39.1541 142.039 39.3621C141.831 39.5621 141.727 39.8141 141.727 40.1181C141.727 40.4781 141.831 40.7701 142.039 40.9941C142.247 41.2101 142.531 41.3181 142.891 41.3181ZM146.508 41.8701C146.428 41.8701 146.388 41.8301 146.388 41.7501V41.3301C146.388 41.2501 146.428 41.2061 146.508 41.1981C146.716 41.1661 146.876 41.0541 146.988 40.8621C147.108 40.6621 147.168 40.3861 147.168 40.0341V37.6461C147.168 37.1181 147.344 36.6861 147.696 36.3501C148.056 36.0141 148.508 35.8461 149.052 35.8461H150.012C150.188 35.8461 150.32 35.8941 150.408 35.9901C150.504 36.0781 150.552 36.2101 150.552 36.3861V41.7501C150.552 41.8301 150.512 41.8701 150.432 41.8701H149.988C149.908 41.8701 149.868 41.8301 149.868 41.7501V36.5061H149.052C148.692 36.5061 148.4 36.6101 148.176 36.8181C147.96 37.0261 147.852 37.3021 147.852 37.6461V40.0341C147.852 40.5781 147.732 41.0141 147.492 41.3421C147.26 41.6621 146.932 41.8381 146.508 41.8701ZM153.969 41.8941C153.793 41.8941 153.657 41.8501 153.561 41.7621C153.473 41.6661 153.429 41.5301 153.429 41.3541V35.9901C153.429 35.9101 153.469 35.8701 153.549 35.8701H153.993C154.073 35.8701 154.113 35.9101 154.113 35.9901V38.1501H155.169C155.729 38.1501 156.181 38.3261 156.525 38.6781C156.877 39.0221 157.053 39.4661 157.053 40.0101C157.053 40.5621 156.877 41.0141 156.525 41.3661C156.181 41.7181 155.729 41.8941 155.169 41.8941H153.969ZM155.169 41.2461C155.537 41.2461 155.829 41.1341 156.045 40.9101C156.261 40.6861 156.369 40.3861 156.369 40.0101C156.369 39.6341 156.261 39.3381 156.045 39.1221C155.829 38.9061 155.537 38.7981 155.169 38.7981H154.113V41.2461H155.169ZM159.494 41.8701C159.414 41.8701 159.374 41.8301 159.374 41.7501V36.5301H158.066C157.986 36.5301 157.946 36.4901 157.946 36.4101V35.9901C157.946 35.9101 157.986 35.8701 158.066 35.8701H161.378C161.458 35.8701 161.498 35.9101 161.498 35.9901V36.4101C161.498 36.4901 161.458 36.5301 161.378 36.5301H160.058V41.7501C160.058 41.8301 160.018 41.8701 159.938 41.8701H159.494ZM163.228 38.5701C163.228 38.4901 163.268 38.4501 163.348 38.4501H168.748C168.828 38.4501 168.868 38.4901 168.868 38.5701V39.0021C168.868 39.0821 168.828 39.1221 168.748 39.1221H163.348C163.268 39.1221 163.228 39.0821 163.228 39.0021V38.5701ZM172.142 41.8701C172.062 41.8701 172.022 41.8301 172.022 41.7501V36.5301H170.714C170.634 36.5301 170.594 36.4901 170.594 36.4101V35.9901C170.594 35.9101 170.634 35.8701 170.714 35.8701H174.026C174.106 35.8701 174.146 35.9101 174.146 35.9901V36.4101C174.146 36.4901 174.106 36.5301 174.026 36.5301H172.706V41.7501C172.706 41.8301 172.666 41.8701 172.586 41.8701H172.142ZM177.825 41.9781C177.273 41.9781 176.829 41.8061 176.493 41.4621C176.157 41.1181 175.989 40.6621 175.989 40.0941V37.6581C175.989 37.0981 176.153 36.6421 176.481 36.2901C176.817 35.9381 177.265 35.7621 177.825 35.7621C178.369 35.7621 178.809 35.9381 179.145 36.2901C179.489 36.6341 179.661 37.0741 179.661 37.6101C179.661 38.1141 179.489 38.5341 179.145 38.8701C178.809 39.1981 178.369 39.3621 177.825 39.3621H176.673V40.0941C176.673 40.4621 176.777 40.7581 176.985 40.9821C177.193 41.2061 177.473 41.3181 177.825 41.3181C178.161 41.3181 178.429 41.2061 178.629 40.9821C178.837 40.7581 178.949 40.4621 178.965 40.0941C178.965 40.0141 179.005 39.9741 179.085 39.9741H179.529C179.609 39.9741 179.649 40.0141 179.649 40.0941C179.633 40.6541 179.457 41.1101 179.121 41.4621C178.785 41.8061 178.353 41.9781 177.825 41.9781ZM177.825 38.7021C178.177 38.7021 178.457 38.6021 178.665 38.4021C178.873 38.1941 178.977 37.9301 178.977 37.6101C178.977 37.2581 178.873 36.9741 178.665 36.7581C178.457 36.5341 178.177 36.4221 177.825 36.4221C177.457 36.4221 177.173 36.5341 176.973 36.7581C176.773 36.9821 176.673 37.2821 176.673 37.6581V38.7021H177.825ZM183.87 35.7501C184.414 35.7501 184.854 35.9301 185.19 36.2901C185.534 36.6421 185.706 37.0901 185.706 37.6341V40.1061C185.706 40.4581 185.63 40.7781 185.478 41.0661C185.334 41.3541 185.13 41.5821 184.866 41.7501C184.602 41.9101 184.306 41.9901 183.978 41.9901C183.458 41.9901 183.038 41.7901 182.718 41.3901V44.1501C182.718 44.2301 182.678 44.2701 182.598 44.2701H182.154C182.074 44.2701 182.034 44.2301 182.034 44.1501V37.6341C182.034 37.0901 182.202 36.6421 182.538 36.2901C182.882 35.9301 183.326 35.7501 183.87 35.7501ZM185.022 37.6341C185.022 37.2661 184.918 36.9701 184.71 36.7461C184.502 36.5221 184.222 36.4101 183.87 36.4101C183.518 36.4101 183.238 36.5221 183.03 36.7461C182.822 36.9701 182.718 37.2661 182.718 37.6341V40.1061C182.718 40.4741 182.822 40.7701 183.03 40.9941C183.238 41.2181 183.518 41.3301 183.87 41.3301C184.222 41.3301 184.502 41.2181 184.71 40.9941C184.918 40.7701 185.022 40.4741 185.022 40.1061V37.6341ZM189.803 41.9781C189.251 41.9781 188.803 41.8061 188.459 41.4621C188.123 41.1101 187.955 40.6621 187.955 40.1181C187.955 39.8061 188.031 39.5181 188.183 39.2541C188.335 38.9901 188.551 38.7821 188.831 38.6301C189.111 38.4701 189.427 38.3901 189.779 38.3901H190.943V37.6101C190.943 37.2581 190.839 36.9701 190.631 36.7461C190.431 36.5221 190.159 36.4101 189.815 36.4101C189.503 36.4101 189.251 36.5101 189.059 36.7101C188.867 36.9101 188.759 37.1781 188.735 37.5141C188.727 37.5941 188.687 37.6341 188.615 37.6341H188.171C188.091 37.6341 188.051 37.5941 188.051 37.5141C188.083 36.9941 188.259 36.5701 188.579 36.2421C188.899 35.9141 189.311 35.7501 189.815 35.7501C190.359 35.7501 190.795 35.9261 191.123 36.2781C191.459 36.6301 191.627 37.0741 191.627 37.6101V40.1181C191.627 40.6621 191.459 41.1101 191.123 41.4621C190.787 41.8061 190.347 41.9781 189.803 41.9781ZM189.803 41.3181C190.155 41.3181 190.431 41.2101 190.631 40.9941C190.839 40.7701 190.943 40.4781 190.943 40.1181V39.0501H189.779C189.435 39.0501 189.159 39.1541 188.951 39.3621C188.743 39.5621 188.639 39.8141 188.639 40.1181C188.639 40.4781 188.743 40.7701 188.951 40.9941C189.159 41.2101 189.443 41.3181 189.803 41.3181ZM197.203 35.8701C197.379 35.8701 197.511 35.9181 197.599 36.0141C197.695 36.1021 197.743 36.2341 197.743 36.4101V41.7501C197.743 41.8301 197.703 41.8701 197.623 41.8701H197.179C197.099 41.8701 197.059 41.8301 197.059 41.7501V36.5301H194.947V41.7501C194.947 41.8301 194.907 41.8701 194.827 41.8701H194.383C194.303 41.8701 194.263 41.8301 194.263 41.7501V36.4101C194.263 36.2341 194.307 36.1021 194.395 36.0141C194.491 35.9181 194.627 35.8701 194.803 35.8701H197.203ZM202.183 41.9781C201.631 41.9781 201.187 41.8061 200.851 41.4621C200.515 41.1181 200.347 40.6621 200.347 40.0941V37.6581C200.347 37.0981 200.511 36.6421 200.839 36.2901C201.175 35.9381 201.623 35.7621 202.183 35.7621C202.727 35.7621 203.167 35.9381 203.503 36.2901C203.847 36.6341 204.019 37.0741 204.019 37.6101C204.019 38.1141 203.847 38.5341 203.503 38.8701C203.167 39.1981 202.727 39.3621 202.183 39.3621H201.031V40.0941C201.031 40.4621 201.135 40.7581 201.343 40.9821C201.551 41.2061 201.831 41.3181 202.183 41.3181C202.519 41.3181 202.787 41.2061 202.987 40.9821C203.195 40.7581 203.307 40.4621 203.323 40.0941C203.323 40.0141 203.363 39.9741 203.443 39.9741H203.887C203.967 39.9741 204.007 40.0141 204.007 40.0941C203.991 40.6541 203.815 41.1101 203.479 41.4621C203.143 41.8061 202.711 41.9781 202.183 41.9781ZM202.183 38.7021C202.535 38.7021 202.815 38.6021 203.023 38.4021C203.231 38.1941 203.335 37.9301 203.335 37.6101C203.335 37.2581 203.231 36.9741 203.023 36.7581C202.815 36.5341 202.535 36.4221 202.183 36.4221C201.815 36.4221 201.531 36.5341 201.331 36.7581C201.131 36.9821 201.031 37.2821 201.031 37.6581V38.7021H202.183ZM209.116 38.6181C209.42 38.7381 209.656 38.9301 209.824 39.1941C210 39.4501 210.088 39.7541 210.088 40.1061C210.088 40.6181 209.908 41.0421 209.548 41.3781C209.196 41.7061 208.748 41.8701 208.204 41.8701H206.932C206.756 41.8701 206.62 41.8261 206.524 41.7381C206.436 41.6421 206.392 41.5061 206.392 41.3301V37.3941C206.392 36.9061 206.548 36.5101 206.86 36.2061C207.172 35.9021 207.584 35.7501 208.096 35.7501C208.608 35.7501 209.02 35.9021 209.332 36.2061C209.644 36.5101 209.8 36.9061 209.8 37.3941C209.8 37.6741 209.74 37.9181 209.62 38.1261C209.5 38.3341 209.332 38.4981 209.116 38.6181ZM207.076 38.3301H208.06C208.396 38.3301 208.656 38.2461 208.84 38.0781C209.024 37.9101 209.116 37.6821 209.116 37.3941C209.116 37.0821 209.028 36.8421 208.852 36.6741C208.676 36.4981 208.424 36.4101 208.096 36.4101C207.768 36.4101 207.516 36.4981 207.34 36.6741C207.164 36.8421 207.076 37.0821 207.076 37.3941V38.3301ZM208.204 41.2101C208.564 41.2101 208.852 41.1101 209.068 40.9101C209.292 40.7101 209.404 40.4421 209.404 40.1061C209.404 39.7701 209.292 39.5021 209.068 39.3021C208.852 39.0941 208.564 38.9901 208.204 38.9901H207.076V41.2101H208.204ZM213.093 41.8701C213.013 41.8701 212.973 41.8301 212.973 41.7501V36.5301H211.665C211.585 36.5301 211.545 36.4901 211.545 36.4101V35.9901C211.545 35.9101 211.585 35.8701 211.665 35.8701H214.977C215.057 35.8701 215.097 35.9101 215.097 35.9901V36.4101C215.097 36.4901 215.057 36.5301 214.977 36.5301H213.657V41.7501C213.657 41.8301 213.617 41.8701 213.537 41.8701H213.093Z" fill="#495057"/>
</svg>
